<svg width="512" height="512" viewBox="0 0 512 512" fill="none" xmlns="http://www.w3.org/2000/svg">
<path d="M237.4 220.6C217.8 230.9 210.3 255.1 220.7 274.7C224.5 281.9 230.3 287.7 237.5 291.5C230.8 297.2 223.6 302.4 216.1 306.9C185.4 325.4 137.9 344 96 344C87.2 344 80 336.8 80 328V184C80 175.2 87.2 168 96 168C137.9 168 185.4 186.6 216 205.2V205.3C223.6 209.7 230.7 214.8 237.4 220.6Z" fill="#93D6FF"/>
<path d="M432 296V328C432 336.8 424.9 344 416.1 344H416C374.1 344 326.6 325.3 296 306.7C288.4 302.2 281.3 297.1 274.6 291.4C294.2 281.1 301.6 256.9 291.3 237.3C287.5 230.2 281.7 224.3 274.6 220.6C281.3 214.9 288.4 209.7 296 205.2C326.6 186.6 374.1 167.9 416 167.9C424.8 167.9 432 175.1 432 183.9V296Z" fill="#93D6FF"/>
<path d="M237.4 220.6C243.2 217.6 249.6 216 256 216C262.5 216 268.9 217.6 274.6 220.6C294.2 230.9 301.6 255.1 291.3 274.7C287.5 281.8 281.7 287.7 274.6 291.4C255 301.7 230.8 294.1 220.5 274.5C210.3 255 217.8 230.9 237.4 220.6Z" fill="#D7E9FF"/>
<path d="M432 216H504V296H432V216Z" fill="#5EC2FF"/>
<path d="M8 216H80V296H8V216Z" fill="#5EC2FF"/>
<path d="M296 8V205.3C288.5 209.8 281.3 214.9 274.6 220.7C268.9 217.6 262.5 216 256 216.1C249.5 216.1 243.1 217.7 237.4 220.7C230.7 215 223.6 209.9 216 205.4V8H296Z" fill="#5EC2FF"/>
<path d="M296 306.8V504H216V306.8C223.6 302.3 230.8 297.2 237.4 291.4C249.1 297.5 262.9 297.5 274.6 291.4C281.3 297.2 288.4 302.3 296 306.8Z" fill="#5EC2FF"/>
<path d="M256 304C229.5 304 208 282.5 208 256C208 229.5 229.5 208 256 208C282.5 208 304 229.5 304 256C304 282.5 282.5 304 256 304ZM256 224C238.3 224 224 238.3 224 256C224 273.7 238.3 288 256 288C273.7 288 288 273.7 288 256C288 238.3 273.7 224 256 224Z" fill="#1DA1F2"/>
<path d="M96 352C91.6 352 88 348.4 88 344C88 339.6 91.6 336 96 336C147.4 336 208.1 306.6 232.1 285.4C235.4 282.5 240.5 282.8 243.4 286.1C246.3 289.4 246 294.5 242.7 297.4C216.8 320.3 151.4 352 96 352Z" fill="#1DA1F2"/>
<path d="M237.4 228.6C235.4 228.6 233.6 227.9 232.1 226.6C208.1 205.4 147.4 176 96 176C91.6 176 88 172.4 88 168C88 163.6 91.6 160 96 160C151.4 160 216.8 191.7 242.7 214.6C246 217.5 246.3 222.6 243.4 225.9C241.9 227.6 239.7 228.6 237.4 228.6Z" fill="#1DA1F2"/>
<path d="M80 192C75.6 192 72 188.4 72 184C72 170.8 82.8 160 96 160C100.4 160 104 163.6 104 168C104 172.4 100.4 176 96 176C91.6 176 88 179.6 88 184C88 188.4 84.4 192 80 192Z" fill="#1DA1F2"/>
<path d="M96 352C82.8 352 72 341.2 72 328C72 323.6 75.6 320 80 320C84.4 320 88 323.6 88 328C88 332.4 91.6 336 96 336C100.4 336 104 339.6 104 344C104 348.4 100.4 352 96 352Z" fill="#1DA1F2"/>
<path d="M80 336C75.6 336 72 332.4 72 328V184C72 179.6 75.6 176 80 176C84.4 176 88 179.6 88 184V328C88 332.4 84.4 336 80 336Z" fill="#1DA1F2"/>
<path d="M416 352C360.6 352 295.2 320.3 269.3 297.4C266 294.5 265.7 289.4 268.6 286.1C271.5 282.8 276.6 282.5 279.9 285.4C303.9 306.6 364.6 336 416 336C420.4 336 424 339.6 424 344C424 348.4 420.4 352 416 352Z" fill="#1DA1F2"/>
<path d="M274.6 228.6C270.2 228.6 266.6 225 266.6 220.6C266.6 218.3 267.6 216.1 269.3 214.6C295.2 191.7 360.6 160 416 160C420.4 160 424 163.6 424 168C424 172.4 420.4 176 416 176C364.6 176 303.9 205.4 279.9 226.6C278.4 227.9 276.6 228.6 274.6 228.6Z" fill="#1DA1F2"/>
<path d="M432 192C427.6 192 424 188.4 424 184C424 179.6 420.4 176 416 176C411.6 176 408 172.4 408 168C408 163.6 411.6 160 416 160C429.2 160 440 170.8 440 184C440 188.4 436.4 192 432 192Z" fill="#1DA1F2"/>
<path d="M416 352C411.6 352 408 348.4 408 344C408 339.6 411.6 336 416 336C420.4 336 424 332.4 424 328C424 323.6 427.6 320 432 320C436.4 320 440 323.6 440 328C440 341.2 429.2 352 416 352Z" fill="#1DA1F2"/>
<path d="M432 336C427.6 336 424 332.4 424 328V184C424 179.6 427.6 176 432 176C436.4 176 440 179.6 440 184V328C440 332.4 436.4 336 432 336Z" fill="#1DA1F2"/>
<path d="M80 224H8C3.6 224 0 220.4 0 216C0 211.6 3.6 208 8 208H80C84.4 208 88 211.6 88 216C88 220.4 84.4 224 80 224Z" fill="#1DA1F2"/>
<path d="M80 304H8C3.6 304 0 300.4 0 296C0 291.6 3.6 288 8 288H80C84.4 288 88 291.6 88 296C88 300.4 84.4 304 80 304Z" fill="#1DA1F2"/>
<path d="M504 224H432C427.6 224 424 220.4 424 216C424 211.6 427.6 208 432 208H504C508.4 208 512 211.6 512 216C512 220.4 508.4 224 504 224Z" fill="#1DA1F2"/>
<path d="M504 304H432C427.6 304 424 300.4 424 296C424 291.6 427.6 288 432 288H504C508.4 288 512 291.6 512 296C512 300.4 508.4 304 504 304Z" fill="#1DA1F2"/>
<path d="M296 213.3C291.6 213.3 288 209.7 288 205.3V8C288 3.6 291.6 0 296 0C300.4 0 304 3.6 304 8V205.3C304 209.7 300.4 213.3 296 213.3Z" fill="#1DA1F2"/>
<path d="M216 213.3C211.6 213.3 208 209.7 208 205.3V8C208 3.6 211.6 0 216 0C220.4 0 224 3.6 224 8V205.3C224 209.7 220.4 213.3 216 213.3Z" fill="#1DA1F2"/>
<path d="M296 512C291.6 512 288 508.4 288 504V306.7C288 302.3 291.6 298.7 296 298.7C300.4 298.7 304 302.3 304 306.7V504C304 508.4 300.4 512 296 512Z" fill="#1DA1F2"/>
<path d="M216 512C211.6 512 208 508.4 208 504V306.7C208 302.3 211.6 298.7 216 298.7C220.4 298.7 224 302.3 224 306.7V504C224 508.4 220.4 512 216 512Z" fill="#1DA1F2"/>
</svg>
