<svg width="496" height="481" viewBox="0 0 496 481" fill="none" xmlns="http://www.w3.org/2000/svg">
<path d="M77.5909 55.4543C77.6158 49.4788 76.26 43.5783 73.6292 38.2129C70.9984 32.8476 67.1637 28.1625 62.4243 24.523C57.6849 20.8836 52.1688 18.3881 46.3063 17.2313C40.4437 16.0744 34.3932 16.2875 28.6265 17.8538C22.8598 19.4201 17.5329 22.2974 13.0613 26.2612C8.58956 30.225 5.09396 35.1682 2.84705 40.7053C0.600146 46.2424 -0.337317 52.2236 0.107774 58.1826C0.552865 64.1416 2.36848 69.9173 5.41301 75.0591V75.0591L5.52977 75.1971C7.01579 77.7127 8.87331 79.4429 10.7627 82.1389L33.2864 111.965C33.9383 112.831 34.7824 113.534 35.7522 114.018C36.7221 114.502 37.7911 114.753 38.8749 114.753C39.9587 114.753 41.0278 114.502 41.9976 114.018C42.9674 113.534 43.8116 112.831 44.4634 111.965L66.5414 82.6272C68.5518 80.2558 70.4298 77.7754 72.167 75.1971L72.2519 75.091C75.7587 69.1419 77.6026 62.36 77.5909 55.4543V55.4543ZM38.7953 72.3525C35.4175 72.3525 32.1155 71.3508 29.307 69.4742C26.4984 67.5976 24.3094 64.9303 23.0168 61.8096C21.7241 58.6889 21.3859 55.2549 22.0449 51.942C22.7039 48.6291 24.3305 45.586 26.7189 43.1975C29.1074 40.809 32.1505 39.1825 35.4634 38.5235C38.7764 37.8645 42.2103 38.2027 45.331 39.4953C48.4517 40.788 51.119 42.977 52.9956 45.7855C54.8722 48.5941 55.8739 51.8961 55.8739 55.2739C55.8753 57.5171 55.4345 59.7385 54.5767 61.8112C53.7189 63.8839 52.461 65.7672 50.8748 67.3534C49.2886 68.9395 47.4053 70.1975 45.3326 71.0553C43.2599 71.913 41.0385 72.3538 38.7953 72.3525V72.3525Z" fill="#F5F5F5"/>
<path d="M496 290.733C496.003 288.104 495.4 285.509 494.238 283.151C493.075 280.792 491.385 278.734 489.297 277.135C487.21 275.537 484.782 274.441 482.202 273.933C479.622 273.425 476.96 273.52 474.422 274.208C471.885 274.897 469.54 276.161 467.571 277.903C465.601 279.645 464.06 281.818 463.067 284.252C462.074 286.687 461.656 289.318 461.845 291.94C462.034 294.563 462.825 297.106 464.157 299.373V299.373V299.437C464.815 300.499 465.643 301.337 466.471 302.494L476.395 315.645C476.683 316.028 477.056 316.338 477.484 316.552C477.912 316.765 478.384 316.877 478.863 316.877C479.342 316.877 479.814 316.765 480.242 316.552C480.67 316.338 481.043 316.028 481.331 315.645L491.086 302.717C491.975 301.668 492.804 300.569 493.569 299.426V299.373C495.143 296.765 495.982 293.78 496 290.733V290.733ZM478.9 298.163C477.412 298.163 475.957 297.722 474.719 296.895C473.482 296.068 472.517 294.893 471.947 293.518C471.378 292.143 471.229 290.629 471.519 289.17C471.81 287.71 472.526 286.369 473.579 285.316C474.631 284.264 475.972 283.547 477.432 283.257C478.892 282.966 480.405 283.115 481.78 283.685C483.155 284.255 484.331 285.219 485.158 286.457C485.984 287.694 486.426 289.149 486.426 290.638C486.427 291.627 486.234 292.608 485.856 293.523C485.479 294.437 484.925 295.269 484.226 295.97C483.527 296.671 482.697 297.227 481.783 297.607C480.87 297.987 479.89 298.183 478.9 298.185V298.163Z" fill="#F5F5F5"/>
<path d="M437.038 425.611C453.759 408.89 453.759 381.779 437.038 365.057C420.316 348.335 393.205 348.335 376.483 365.057C359.762 381.779 359.762 408.89 376.483 425.611C393.205 442.333 420.316 442.333 437.038 425.611Z" fill="#F5F5F5"/>
<path d="M406.765 430.981C399.715 430.983 392.822 428.895 386.96 424.98C381.097 421.064 376.527 415.498 373.827 408.986C371.128 402.473 370.42 395.306 371.795 388.391C373.169 381.476 376.563 375.124 381.547 370.138C386.531 365.153 392.882 361.757 399.797 360.381C406.711 359.005 413.878 359.71 420.392 362.407C426.905 365.105 432.473 369.673 436.39 375.535C440.307 381.397 442.397 388.288 442.397 395.338C442.389 404.787 438.632 413.846 431.952 420.529C425.272 427.211 416.213 430.97 406.765 430.981V430.981ZM406.765 365.798C400.922 365.798 395.211 367.531 390.353 370.777C385.495 374.023 381.709 378.636 379.473 384.034C377.238 389.432 376.653 395.371 377.792 401.101C378.932 406.831 381.746 412.095 385.877 416.226C390.008 420.357 395.272 423.171 401.002 424.31C406.732 425.45 412.671 424.865 418.069 422.63C423.467 420.394 428.08 416.608 431.326 411.75C434.572 406.892 436.305 401.181 436.305 395.338C436.296 387.506 433.181 379.998 427.643 374.46C422.105 368.922 414.597 365.807 406.765 365.798V365.798Z" fill="white"/>
<path d="M406.521 407.523C403.923 407.523 401.384 406.753 399.225 405.31C397.065 403.867 395.383 401.815 394.389 399.416C393.396 397.016 393.136 394.375 393.644 391.828C394.151 389.281 395.403 386.941 397.24 385.105C399.077 383.27 401.418 382.02 403.966 381.514C406.513 381.009 409.154 381.271 411.553 382.266C413.952 383.261 416.002 384.946 417.443 387.107C418.884 389.267 419.653 391.807 419.651 394.404C419.648 397.885 418.263 401.221 415.801 403.682C413.339 406.142 410.001 407.523 406.521 407.523V407.523ZM406.521 387.356C405.131 387.356 403.772 387.768 402.617 388.54C401.461 389.312 400.561 390.41 400.029 391.694C399.497 392.978 399.358 394.391 399.629 395.754C399.9 397.117 400.569 398.369 401.552 399.351C402.535 400.334 403.787 401.003 405.15 401.275C406.513 401.546 407.926 401.407 409.21 400.875C410.494 400.343 411.591 399.442 412.363 398.287C413.135 397.131 413.547 395.773 413.547 394.383C413.539 392.524 412.795 390.744 411.479 389.431C410.162 388.118 408.38 387.38 406.521 387.377V387.356Z" fill="white"/>
<path d="M406.521 394.404H389.93L392.828 399.52L353.778 417.416L355.094 419.613L394.272 401.919L396.957 407.003L406.521 394.404Z" fill="#E0E0E0"/>
<path d="M353.778 417.416L353.364 417.013C352.358 416.031 351.109 415.335 349.746 414.996C348.382 414.656 346.953 414.686 345.605 415.081L330.033 419.613L338.705 423.424L335.224 432.69L349.84 427.532C351.443 426.958 352.82 425.883 353.766 424.467C354.712 423.051 355.177 421.368 355.094 419.666V419.666L353.778 417.416Z" fill="#E0E0E0"/>
<path d="M164.82 426.396L165.138 426.29L166.062 426.024L169.607 424.963L182.886 421.237L182.758 421.46C182.079 419.178 181.315 416.631 180.508 413.892V413.775L180.614 413.68C184.292 410.598 187.421 406.916 189.87 402.79C191.234 400.464 192.277 397.965 192.969 395.359C193.696 392.59 193.866 389.704 193.468 386.868C192.505 380.706 189.419 375.074 184.743 370.946C179.689 366.532 173.379 363.811 166.699 363.166C161.684 362.74 156.652 363.749 152.189 366.074C147.888 368.167 144.172 371.292 141.373 375.171C138.794 378.825 137.194 383.078 136.724 387.526C136.66 388.587 136.501 389.649 136.522 390.71C136.543 391.772 136.575 392.833 136.607 393.81C136.776 395.802 137.131 397.775 137.668 399.701C138.196 401.509 138.907 403.259 139.791 404.923C140.657 406.472 141.681 407.927 142.848 409.264C144.977 411.651 147.488 413.667 150.278 415.23C154.35 417.539 158.811 419.079 163.44 419.773H163.514V419.836L164.576 424.655C164.682 425.186 164.767 425.6 164.82 425.897C164.873 426.194 164.905 426.322 164.905 426.332C164.855 426.21 164.819 426.081 164.799 425.95L164.502 424.74L163.355 419.879L163.451 419.964C158.771 419.329 154.252 417.821 150.13 415.516C147.301 413.951 144.754 411.924 142.594 409.519C141.381 408.166 140.314 406.689 139.409 405.114C138.485 403.426 137.738 401.648 137.18 399.807C136.648 397.851 136.293 395.851 136.119 393.831L136.023 390.647C136.023 389.585 136.161 388.524 136.225 387.462C136.688 382.924 138.311 378.582 140.938 374.852C143.783 370.892 147.564 367.697 151.945 365.554C156.515 363.171 161.671 362.144 166.805 362.593C173.617 363.238 180.053 366.012 185.2 370.522C187.625 372.656 189.643 375.213 191.154 378.069C191.557 378.75 191.912 379.46 192.216 380.191C192.544 380.878 192.821 381.587 193.044 382.314C193.267 383.057 193.511 383.779 193.712 384.512C193.914 385.244 193.978 386.008 194.116 386.751C194.51 389.656 194.326 392.611 193.574 395.444C192.861 398.09 191.79 400.625 190.39 402.981C187.893 407.141 184.71 410.848 180.975 413.945L181.049 413.733L183.247 421.301L183.3 421.471L183.13 421.524L169.703 425.09L166.168 426.014L165.276 426.237L164.82 426.396Z" fill="#E0E0E0"/>
<path d="M184.616 426.406C181.602 427.537 178.521 428.483 175.392 429.241C172.313 430.183 169.179 430.938 166.009 431.501C169.027 430.383 172.106 429.44 175.233 428.678C178.313 427.735 181.446 426.977 184.616 426.406V426.406Z" fill="#E0E0E0"/>
<path d="M180.466 435.089C179.518 435.759 178.428 436.202 177.281 436.384C176.176 436.741 175.003 436.843 173.853 436.681C174.917 436.278 176.019 435.986 177.143 435.811C178.224 435.461 179.337 435.219 180.466 435.089V435.089Z" fill="#E0E0E0"/>
<path d="M168.609 425.409C168.56 425.315 168.525 425.215 168.503 425.112C168.44 424.878 168.365 424.581 168.259 424.209C168.047 423.367 167.75 422.21 167.368 420.739C166.603 417.671 165.521 413.308 164.183 407.927C163.514 405.22 162.793 402.259 162.06 399.085C161.904 398.301 161.59 397.557 161.137 396.899C160.946 396.575 160.644 396.331 160.287 396.212C159.93 396.093 159.542 396.107 159.194 396.251C158.865 396.472 158.599 396.775 158.424 397.131C158.249 397.487 158.171 397.883 158.197 398.278C158.222 399.129 158.558 399.941 159.141 400.561C159.769 401.208 160.543 401.694 161.399 401.976C162.255 402.259 163.166 402.331 164.056 402.185C164.989 402.043 165.871 401.671 166.624 401.102C167.376 400.533 167.975 399.785 168.365 398.926C169.232 397.138 169.45 395.104 168.981 393.173C168.8 392.196 168.339 391.292 167.654 390.572C167.327 390.246 166.902 390.035 166.444 389.972C165.987 389.908 165.521 389.996 165.117 390.222C164.77 390.534 164.535 390.951 164.449 391.41C164.362 391.868 164.429 392.342 164.64 392.759C165.105 393.624 165.785 394.355 166.614 394.882C168.178 396.125 170.062 396.901 172.048 397.121C172.995 397.206 173.948 397.064 174.829 396.708C175.661 396.321 176.389 395.743 176.952 395.02C177.52 394.317 177.861 393.458 177.929 392.557C177.964 392.125 177.911 391.691 177.772 391.28C177.633 390.869 177.412 390.491 177.122 390.169C176.873 389.859 176.543 389.625 176.167 389.493C175.792 389.362 175.387 389.339 174.999 389.426C174.62 389.564 174.278 389.787 173.998 390.077C173.718 390.368 173.509 390.719 173.386 391.103C172.866 392.663 173.322 394.404 173.513 396.007C174.023 399.191 174.575 402.227 175.137 404.955C176.199 410.389 177.122 414.794 177.748 417.883C178.046 419.38 178.29 420.558 178.46 421.397C178.523 421.779 178.587 422.076 178.629 422.32C178.64 422.426 178.64 422.533 178.629 422.639C178.586 422.54 178.554 422.437 178.534 422.331C178.47 422.097 178.396 421.8 178.3 421.428C178.099 420.59 177.833 419.422 177.483 417.936C176.793 414.901 175.806 410.506 174.691 405.04C174.14 402.312 173.534 399.319 172.993 396.081C172.876 395.264 172.738 394.447 172.653 393.587C172.53 392.697 172.602 391.792 172.866 390.933C173.016 390.473 173.269 390.054 173.605 389.706C173.942 389.358 174.353 389.092 174.808 388.927C175.3 388.801 175.817 388.817 176.3 388.973C176.782 389.129 177.211 389.419 177.536 389.808C177.87 390.184 178.126 390.622 178.288 391.098C178.451 391.574 178.516 392.077 178.481 392.579C178.421 393.593 178.05 394.563 177.419 395.359C176.788 396.168 175.968 396.809 175.031 397.228C174.066 397.62 173.023 397.78 171.985 397.695C169.893 397.463 167.907 396.65 166.253 395.349C165.343 394.749 164.61 393.917 164.13 392.939C163.825 392.415 163.726 391.795 163.853 391.201C163.98 390.607 164.323 390.082 164.817 389.728C165.31 389.374 165.917 389.217 166.521 389.286C167.124 389.356 167.679 389.648 168.079 390.105C168.84 390.906 169.356 391.908 169.565 392.992C170.063 395.056 169.827 397.23 168.896 399.138C168.46 400.074 167.8 400.888 166.974 401.509C166.148 402.129 165.182 402.536 164.162 402.694C163.182 402.852 162.179 402.768 161.24 402.45C160.3 402.132 159.452 401.589 158.77 400.868C158.1 400.15 157.722 399.208 157.708 398.225C157.68 397.735 157.786 397.245 158.014 396.81C158.242 396.374 158.584 396.009 159.003 395.752C159.23 395.643 159.477 395.581 159.728 395.568C159.98 395.555 160.231 395.593 160.468 395.678C160.899 395.86 161.267 396.162 161.53 396.548C162.014 397.27 162.356 398.077 162.538 398.926C163.292 402.11 163.992 405.082 164.661 407.8L167.633 420.632C167.962 422.118 168.227 423.286 168.418 424.135C168.493 424.507 168.556 424.804 168.609 425.048C168.632 425.167 168.632 425.29 168.609 425.409Z" fill="#E0E0E0"/>
<path d="M183.884 430.376C181.47 431.345 178.986 432.129 176.454 432.722C173.959 433.499 171.412 434.095 168.832 434.505C171.246 433.537 173.73 432.752 176.262 432.159C178.757 431.384 181.304 430.788 183.884 430.376V430.376Z" fill="#E0E0E0"/>
<path d="M472.415 479.394C472.415 479.542 371.122 479.67 246.19 479.67C121.259 479.67 19.9441 479.542 19.9441 479.394C19.9441 479.245 121.216 479.118 246.19 479.118C371.164 479.118 472.415 479.234 472.415 479.394Z" fill="#263238"/>
<path d="M453.723 52.4187H38.859V78.9972H453.723V52.4187Z" fill="#E0E0E0"/>
<path d="M453.659 103.41H38.7953V336.078H453.659V103.41Z" fill="white"/>
<path d="M38.859 78.7953H95.8265L101.463 62.3643H193.808L199.444 78.7953H453.723V103.973H38.859V78.7953Z" fill="#EBEBEB"/>
<path d="M52.5516 63.0225C52.5516 63.6397 52.3685 64.243 52.0256 64.7562C51.6827 65.2694 51.1954 65.6694 50.6252 65.9056C50.0549 66.1418 49.4275 66.2036 48.8221 66.0832C48.2168 65.9628 47.6607 65.6656 47.2243 65.2291C46.7879 64.7927 46.4907 64.2367 46.3703 63.6313C46.2499 63.026 46.3117 62.3985 46.5478 61.8283C46.784 61.2581 47.184 60.7707 47.6972 60.4278C48.2104 60.0849 48.8137 59.9019 49.4309 59.9019C49.8411 59.9005 50.2476 59.9802 50.6268 60.1366C51.0061 60.2929 51.3506 60.5227 51.6407 60.8128C51.9307 61.1028 52.1606 61.4474 52.3169 61.8266C52.4732 62.2059 52.553 62.6123 52.5516 63.0225Z" fill="#263238"/>
<path d="M62.2001 63.0225C62.2001 63.6397 62.0171 64.243 61.6742 64.7562C61.3313 65.2694 60.8439 65.6694 60.2737 65.9056C59.7035 66.1418 59.076 66.2036 58.4707 66.0832C57.8653 65.9628 57.3093 65.6656 56.8729 65.2291C56.4365 64.7927 56.1392 64.2367 56.0188 63.6313C55.8984 63.026 55.9602 62.3985 56.1964 61.8283C56.4326 61.2581 56.8326 60.7707 57.3458 60.4278C57.859 60.0849 58.4623 59.9019 59.0795 59.9019C59.4897 59.9005 59.8961 59.9802 60.2754 60.1366C60.6546 60.2929 60.9992 60.5227 61.2892 60.8128C61.5793 61.1028 61.8091 61.4474 61.9654 61.8266C62.1218 62.2059 62.2015 62.6123 62.2001 63.0225Z" fill="#263238"/>
<path d="M71.8486 63.0225C71.8486 63.6397 71.6655 64.243 71.3226 64.7562C70.9797 65.2694 70.4924 65.6694 69.9221 65.9056C69.3519 66.1418 68.7245 66.2036 68.1191 66.0832C67.5138 65.9628 66.9577 65.6656 66.5213 65.2291C66.0849 64.7927 65.7877 64.2367 65.6673 63.6313C65.5469 63.026 65.6087 62.3985 65.8448 61.8283C66.081 61.2581 66.481 60.7707 66.9942 60.4278C67.5074 60.0849 68.1107 59.9019 68.7279 59.9019C69.1381 59.9005 69.5446 59.9802 69.9238 60.1366C70.303 60.2929 70.6476 60.5227 70.9377 60.8128C71.2277 61.1028 71.4575 61.4474 71.6139 61.8266C71.7702 62.2059 71.85 62.6123 71.8486 63.0225Z" fill="#263238"/>
<path d="M407.869 98.9629H123.244C121.149 98.9629 119.14 98.1309 117.659 96.6499C116.178 95.1689 115.346 93.1603 115.346 91.0658C115.346 88.9714 116.178 86.9627 117.659 85.4817C119.14 84.0007 121.149 83.1687 123.244 83.1687H407.869C409.963 83.1687 411.972 84.0007 413.453 85.4817C414.934 86.9627 415.766 88.9714 415.766 91.0658C415.766 93.1603 414.934 95.1689 413.453 96.6499C411.972 98.1309 409.963 98.9629 407.869 98.9629Z" fill="#FAFAFA"/>
<path d="M130.058 92.1166V94.7915H128.71V92.3289C128.71 91.5753 128.36 91.2675 127.765 91.2675C127.171 91.2675 126.64 91.6708 126.64 92.52V94.8339H125.292V88.3591H126.64V90.6094C127.046 90.2404 127.578 90.0426 128.126 90.0574C128.396 90.0394 128.666 90.0815 128.917 90.1805C129.168 90.2795 129.395 90.433 129.579 90.6299C129.764 90.8269 129.903 91.0624 129.986 91.3195C130.068 91.5766 130.093 91.8488 130.058 92.1166V92.1166Z" fill="#E0E0E0"/>
<path d="M134.282 94.558C133.966 94.7603 133.596 94.8638 133.221 94.8552C132.99 94.8868 132.756 94.8658 132.535 94.7936C132.313 94.7215 132.111 94.6002 131.944 94.4388C131.776 94.2773 131.648 94.08 131.567 93.8617C131.487 93.6433 131.457 93.4096 131.48 93.1781V91.2675H130.758V90.2061H131.48V89.0703H132.828V90.2061H133.985V91.2675H132.828V93.1781C132.817 93.2589 132.824 93.3412 132.848 93.4189C132.873 93.4967 132.915 93.5678 132.971 93.627C133.027 93.6862 133.096 93.732 133.173 93.7608C133.249 93.7897 133.331 93.8009 133.412 93.7937C133.608 93.7961 133.798 93.7326 133.953 93.6133L134.282 94.558Z" fill="#E0E0E0"/>
<path d="M137.913 94.558C137.595 94.758 137.226 94.8613 136.851 94.8552C136.621 94.8868 136.386 94.8658 136.165 94.7936C135.944 94.7215 135.742 94.6002 135.574 94.4388C135.406 94.2773 135.278 94.08 135.197 93.8617C135.117 93.6433 135.087 93.4096 135.11 93.1781V91.2675H134.389V90.2061H135.11V89.0703H136.458V90.2061H137.626V91.2675H136.458V93.1781C136.449 93.2585 136.457 93.34 136.483 93.4168C136.508 93.4937 136.55 93.564 136.606 93.6227C136.662 93.6815 136.73 93.7272 136.805 93.7568C136.88 93.7864 136.961 93.799 137.042 93.7937C137.241 93.796 137.435 93.7326 137.594 93.6133L137.913 94.558Z" fill="#E0E0E0"/>
<path d="M143.793 92.4564C143.812 92.7701 143.766 93.0844 143.657 93.3792C143.548 93.6741 143.379 93.943 143.16 94.1687C142.941 94.3944 142.678 94.5721 142.387 94.6903C142.095 94.8085 141.783 94.8647 141.468 94.8552C141.208 94.8675 140.948 94.8236 140.707 94.7265C140.465 94.6294 140.247 94.4815 140.067 94.2926V96.4155H138.719V90.0469H140.035V90.5882C140.219 90.3844 140.446 90.2242 140.699 90.1196C140.953 90.0149 141.226 89.9683 141.5 89.9832C141.819 89.9773 142.134 90.0387 142.427 90.1634C142.72 90.288 142.984 90.4732 143.2 90.7066C143.417 90.9401 143.581 91.2166 143.683 91.5182C143.786 91.8197 143.823 92.1394 143.793 92.4564V92.4564ZM142.424 92.4564C142.403 92.2269 142.316 92.0083 142.174 91.8273C142.031 91.6462 141.839 91.5105 141.621 91.4366C141.403 91.3626 141.168 91.3537 140.945 91.4109C140.721 91.468 140.52 91.5888 140.364 91.7585C140.208 91.9283 140.105 92.1396 140.067 92.3669C140.029 92.5941 140.058 92.8275 140.15 93.0386C140.243 93.2497 140.394 93.4295 140.587 93.556C140.779 93.6825 141.004 93.7504 141.235 93.7513C141.401 93.7536 141.565 93.7209 141.718 93.6551C141.87 93.5894 142.007 93.4923 142.119 93.37C142.231 93.2478 142.317 93.1032 142.369 92.9457C142.422 92.7883 142.44 92.6215 142.424 92.4564Z" fill="#E0E0E0"/>
<path d="M144.366 90.896C144.389 90.6885 144.488 90.4968 144.644 90.3577C144.8 90.2185 145.001 90.1416 145.21 90.1416C145.419 90.1416 145.62 90.2185 145.776 90.3577C145.932 90.4968 146.031 90.6885 146.054 90.896C146.067 91.0147 146.055 91.135 146.019 91.2488C145.983 91.3627 145.923 91.4676 145.843 91.5567C145.763 91.6458 145.666 91.7171 145.557 91.7659C145.448 91.8147 145.33 91.8399 145.21 91.8399C145.09 91.8399 144.972 91.8147 144.863 91.7659C144.754 91.7171 144.657 91.6458 144.577 91.5567C144.497 91.4676 144.437 91.3627 144.401 91.2488C144.365 91.135 144.353 91.0147 144.366 90.896V90.896ZM144.366 94.006C144.389 93.7985 144.488 93.6069 144.644 93.4677C144.8 93.3285 145.001 93.2516 145.21 93.2516C145.419 93.2516 145.62 93.3285 145.776 93.4677C145.932 93.6069 146.031 93.7985 146.054 94.006C146.067 94.1247 146.055 94.245 146.019 94.3588C145.983 94.4727 145.923 94.5776 145.843 94.6667C145.763 94.7558 145.666 94.8271 145.557 94.8759C145.448 94.9247 145.33 94.9499 145.21 94.9499C145.09 94.9499 144.972 94.9247 144.863 94.8759C144.754 94.8271 144.657 94.7558 144.577 94.6667C144.497 94.5776 144.437 94.4727 144.401 94.3588C144.365 94.245 144.353 94.1247 144.366 94.006V94.006Z" fill="#E0E0E0"/>
<path d="M149.376 87.4888H150.586L147.72 95.6512H146.521L149.376 87.4888Z" fill="#E0E0E0"/>
<path d="M152.147 87.4888H153.346L150.491 95.6512H149.281L152.147 87.4888Z" fill="#E0E0E0"/>
<path d="M407.614 145.252H159.63C155.917 145.252 152.355 143.777 149.73 141.152C147.104 138.526 145.629 134.965 145.629 131.252V131.252C145.632 127.54 147.108 123.98 149.733 121.355C152.358 118.73 155.917 117.254 159.63 117.251H407.614C411.326 117.254 414.886 118.73 417.511 121.355C420.136 123.98 421.612 127.54 421.614 131.252C421.614 134.965 420.139 138.526 417.514 141.152C414.888 143.777 411.327 145.252 407.614 145.252V145.252Z" fill="#FAFAFA"/>
<path d="M407.614 145.252C409.592 145.21 411.541 144.769 413.346 143.957C415.121 143.14 416.707 141.964 418.004 140.502C419.302 139.04 420.281 137.326 420.882 135.466C421.385 133.806 421.579 132.069 421.455 130.339C421.324 128.403 420.788 126.516 419.884 124.798C418.873 122.917 417.446 121.291 415.713 120.043C413.819 118.678 411.609 117.816 409.291 117.538C408.059 117.433 406.822 117.397 405.587 117.432H401.723H366.069L159.651 117.506C157.172 117.513 154.741 118.188 152.614 119.459C150.523 120.708 148.802 122.49 147.627 124.622C146.453 126.755 145.867 129.162 145.929 131.596C145.992 134.031 146.701 136.404 147.984 138.474C149.267 140.544 151.077 142.235 153.229 143.374C155.355 144.475 157.724 145.023 160.118 144.966H229.303L322.104 145.029L384.729 145.114H401.712H406.139C407.136 145.114 407.646 145.114 407.646 145.114H406.139H401.712H384.729L322.104 145.21L229.303 145.263H174.49H160.118C157.635 145.327 155.176 144.757 152.974 143.607C150.156 142.117 147.917 139.726 146.616 136.815C145.314 133.904 145.024 130.642 145.792 127.547C146.56 124.453 148.342 121.704 150.854 119.74C153.366 117.776 156.463 116.71 159.651 116.71L366.122 117.06H401.776H405.64C406.89 117.03 408.141 117.069 409.387 117.177C411.746 117.471 413.992 118.358 415.914 119.757C417.6 120.965 418.996 122.532 420.002 124.346C421.008 126.159 421.599 128.174 421.731 130.244C421.843 132 421.634 133.763 421.115 135.445C420.634 136.913 419.917 138.293 418.993 139.531C417.553 141.483 415.633 143.03 413.42 144.021C412.071 144.614 410.639 144.997 409.174 145.157C408.123 145.252 407.614 145.252 407.614 145.252Z" fill="#263238"/>
<path d="M165.319 134.234L165.839 133.067C166.496 133.517 167.272 133.761 168.068 133.767C168.992 133.767 169.363 133.46 169.363 133.046C169.363 131.782 165.446 132.653 165.446 130.148C165.446 129.002 166.37 128.025 168.291 128.025C169.109 128.009 169.915 128.215 170.626 128.619L170.149 129.808C169.583 129.471 168.939 129.288 168.28 129.277C167.357 129.277 166.996 129.628 166.996 130.052C166.996 131.294 170.913 130.434 170.913 132.908C170.913 134.033 169.979 135.03 168.057 135.03C167.085 135.053 166.128 134.775 165.319 134.234V134.234Z" fill="#E0E0E0"/>
<path d="M176.921 132.738H173.004C173.082 133.064 173.275 133.352 173.548 133.547C173.821 133.742 174.156 133.832 174.49 133.799C174.729 133.807 174.967 133.765 175.19 133.678C175.412 133.59 175.615 133.458 175.785 133.29L176.581 134.16C176.176 134.55 175.671 134.818 175.121 134.936C174.572 135.053 174.001 135.015 173.472 134.825C172.944 134.635 172.479 134.301 172.129 133.861C171.78 133.421 171.561 132.892 171.497 132.335C171.492 131.975 171.561 131.619 171.699 131.287C171.837 130.955 172.042 130.655 172.3 130.406C172.559 130.156 172.866 129.962 173.202 129.836C173.539 129.709 173.897 129.653 174.256 129.67C174.614 129.652 174.972 129.709 175.307 129.837C175.641 129.966 175.945 130.163 176.199 130.416C176.453 130.669 176.651 130.972 176.781 131.306C176.911 131.64 176.969 131.998 176.952 132.356C176.952 132.451 176.931 132.61 176.921 132.738ZM172.983 131.857H175.53C175.475 131.559 175.318 131.289 175.085 131.096C174.853 130.902 174.559 130.795 174.256 130.795C173.953 130.795 173.66 130.902 173.427 131.096C173.195 131.289 173.037 131.559 172.983 131.857V131.857Z" fill="#E0E0E0"/>
<path d="M182.387 131.942V134.903H180.986V134.256C180.811 134.506 180.572 134.706 180.294 134.833C180.015 134.96 179.708 135.01 179.404 134.977C178.194 134.977 177.472 134.298 177.472 133.406C177.472 132.515 178.12 131.857 179.691 131.857H180.89C180.89 131.22 180.498 130.795 179.691 130.795C179.157 130.791 178.636 130.958 178.205 131.273L177.663 130.212C178.328 129.787 179.104 129.569 179.892 129.585C181.432 129.649 182.387 130.381 182.387 131.942ZM180.89 133.269V132.738H179.829C179.128 132.738 178.905 132.993 178.905 133.343C178.905 133.693 179.224 133.969 179.744 133.969C179.985 133.993 180.228 133.937 180.434 133.811C180.641 133.684 180.801 133.494 180.89 133.269V133.269Z" fill="#E0E0E0"/>
<path d="M186.962 129.649V131.029H186.622C186.434 131.013 186.244 131.04 186.067 131.107C185.891 131.174 185.731 131.279 185.6 131.415C185.469 131.551 185.37 131.715 185.31 131.894C185.25 132.073 185.23 132.264 185.253 132.451V134.903H183.746V129.723H185.179V130.403C185.395 130.145 185.669 129.942 185.979 129.811C186.289 129.68 186.626 129.624 186.962 129.649Z" fill="#E0E0E0"/>
<path d="M187.429 132.313C187.429 131.944 187.506 131.579 187.654 131.241C187.802 130.904 188.019 130.6 188.29 130.35C188.561 130.099 188.881 129.908 189.23 129.787C189.578 129.667 189.948 129.62 190.316 129.649C190.789 129.611 191.263 129.716 191.675 129.951C192.088 130.186 192.421 130.539 192.63 130.965L191.462 131.592C191.355 131.377 191.19 131.196 190.986 131.07C190.781 130.945 190.545 130.879 190.305 130.88C189.925 130.88 189.561 131.031 189.292 131.3C189.023 131.569 188.872 131.933 188.872 132.313C188.872 132.693 189.023 133.058 189.292 133.327C189.561 133.595 189.925 133.746 190.305 133.746C190.546 133.75 190.783 133.685 190.988 133.559C191.192 133.433 191.357 133.251 191.462 133.035L192.63 133.672C192.417 134.094 192.083 134.444 191.671 134.676C191.259 134.909 190.788 135.013 190.316 134.977C189.948 135.007 189.578 134.96 189.23 134.839C188.881 134.718 188.561 134.527 188.29 134.277C188.019 134.027 187.802 133.723 187.654 133.385C187.506 133.047 187.429 132.682 187.429 132.313V132.313Z" fill="#E0E0E0"/>
<path d="M198.754 131.942V134.903H197.247V132.165C197.247 131.326 196.865 130.944 196.186 130.944C195.506 130.944 194.944 131.39 194.944 132.345V134.903H193.437V127.76H194.944V130.265C195.163 130.058 195.422 129.897 195.704 129.791C195.987 129.686 196.288 129.637 196.589 129.649C196.89 129.626 197.193 129.67 197.475 129.779C197.757 129.888 198.012 130.059 198.219 130.278C198.427 130.498 198.583 130.762 198.675 131.05C198.768 131.337 198.795 131.642 198.754 131.942Z" fill="#E0E0E0"/>
<path d="M202.469 134.033C202.469 133.785 202.568 133.547 202.743 133.372C202.918 133.197 203.156 133.099 203.403 133.099C203.651 133.099 203.889 133.197 204.064 133.372C204.239 133.547 204.337 133.785 204.337 134.033C204.337 134.28 204.239 134.518 204.064 134.693C203.889 134.868 203.651 134.967 203.403 134.967C203.156 134.967 202.918 134.868 202.743 134.693C202.568 134.518 202.469 134.28 202.469 134.033Z" fill="#E0E0E0"/>
<path d="M204.996 134.033C204.998 133.849 205.054 133.669 205.158 133.517C205.262 133.365 205.409 133.247 205.58 133.177C205.75 133.108 205.938 133.091 206.118 133.129C206.299 133.166 206.464 133.256 206.594 133.387C206.723 133.518 206.811 133.684 206.847 133.865C206.882 134.046 206.863 134.233 206.792 134.403C206.721 134.573 206.601 134.719 206.447 134.821C206.294 134.923 206.114 134.977 205.93 134.978C205.806 134.979 205.683 134.955 205.568 134.908C205.453 134.861 205.349 134.792 205.262 134.703C205.175 134.615 205.106 134.51 205.061 134.395C205.015 134.28 204.993 134.157 204.996 134.033Z" fill="#E0E0E0"/>
<path d="M207.511 134.033C207.511 133.785 207.61 133.547 207.785 133.372C207.96 133.197 208.198 133.099 208.445 133.099C208.693 133.099 208.931 133.197 209.106 133.372C209.281 133.547 209.379 133.785 209.379 134.033C209.379 134.155 209.355 134.277 209.308 134.39C209.261 134.503 209.193 134.606 209.106 134.693C209.019 134.78 208.916 134.849 208.803 134.896C208.689 134.943 208.568 134.967 208.445 134.967C208.323 134.967 208.201 134.943 208.088 134.896C207.975 134.849 207.872 134.78 207.785 134.693C207.698 134.606 207.629 134.503 207.582 134.39C207.535 134.277 207.511 134.155 207.511 134.033V134.033Z" fill="#E0E0E0"/>
<path d="M116.758 169.602C116.758 169.761 106.802 169.878 94.5315 169.878C82.2612 169.878 72.3049 169.761 72.3049 169.602C72.3049 169.442 82.2506 169.326 94.5315 169.326C106.812 169.326 116.758 169.474 116.758 169.602Z" fill="black"/>
<path d="M118.499 182.328H72.3049V228.522H118.499V182.328Z" fill="#1DA1F2"/>
<path d="M399.186 193.219C399.186 193.367 341.868 193.495 271.134 193.495C200.4 193.495 143.071 193.367 143.071 193.219C143.071 193.07 200.389 192.943 271.134 192.943C341.879 192.943 399.186 193.06 399.186 193.219Z" fill="black"/>
<path d="M213.126 210.605C213.126 210.764 198.011 210.881 179.383 210.881C160.755 210.881 145.629 210.764 145.629 210.605C145.629 210.446 160.734 210.329 179.383 210.329C198.033 210.329 213.126 210.456 213.126 210.605Z" fill="black"/>
<path d="M358.257 226.739C358.257 226.888 310.651 227.015 251.943 227.015C193.235 227.015 145.629 226.888 145.629 226.739C145.629 226.59 193.224 226.452 251.943 226.452C310.662 226.452 358.257 226.58 358.257 226.739Z" fill="#E0E0E0"/>
<path d="M116.758 252.394C116.758 252.543 106.802 252.67 94.5315 252.67C82.2612 252.67 72.3049 252.543 72.3049 252.394C72.3049 252.246 82.2506 252.118 94.5315 252.118C106.812 252.118 116.758 252.214 116.758 252.394Z" fill="black"/>
<path d="M118.499 265.068H72.3049V311.261H118.499V265.068Z" fill="#1DA1F2"/>
<path d="M414.407 275.947C414.407 276.107 353.661 276.223 278.744 276.223C203.828 276.223 143.071 276.107 143.071 275.947C143.071 275.788 203.807 275.671 278.744 275.671C353.682 275.671 414.407 275.799 414.407 275.947Z" fill="black"/>
<path d="M213.126 293.344C213.126 293.493 198.011 293.62 179.383 293.62C160.755 293.62 145.629 293.493 145.629 293.344C145.629 293.196 160.734 293.068 179.383 293.068C198.033 293.068 213.126 293.196 213.126 293.344Z" fill="black"/>
<path d="M395.28 309.468C395.28 309.627 339.395 309.744 270.465 309.744C201.535 309.744 145.629 309.627 145.629 309.468C145.629 309.308 201.514 309.192 270.465 309.192C339.416 309.192 395.28 309.319 395.28 309.468Z" fill="#E0E0E0"/>
<path d="M453.723 336.64C453.723 334.815 453.638 225.402 453.5 52.4186L453.723 52.6415H38.8909L39.1668 52.3656C39.1668 153.818 39.1668 250.207 39.1668 336.587L38.9121 336.333L453.776 336.587L38.9121 336.831H38.6573V336.587C38.6573 250.207 38.6573 153.818 38.6573 52.3656V52.0896H38.9652H453.797H454.02V52.3125C453.818 225.402 453.723 334.815 453.723 336.64Z" fill="#263238"/>
<path d="M182.599 73.0106C182.599 73.1698 167.951 73.2866 149.886 73.2866C131.82 73.2866 117.172 73.1698 117.172 73.0106C117.172 72.8514 131.82 72.7346 149.886 72.7346C167.951 72.7346 182.599 72.862 182.599 73.0106Z" fill="black"/>
<path d="M123.583 125.255H65.48V142.758H123.583V125.255Z" fill="#455A64"/>
<path d="M226.469 171.098C226.469 171.257 208.424 171.374 186.134 171.374C163.844 171.374 145.799 171.257 145.799 171.098C145.799 170.939 163.844 170.822 186.134 170.822C208.424 170.822 226.469 170.95 226.469 171.098Z" fill="#1DA1F2"/>
<path d="M226.469 252.394C226.469 252.543 208.424 252.67 186.134 252.67C163.844 252.67 145.799 252.543 145.799 252.394C145.799 252.246 163.844 252.118 186.134 252.118C208.424 252.118 226.469 252.214 226.469 252.394Z" fill="#1DA1F2"/>
<path d="M402.275 135.912C400.939 135.914 399.632 135.519 398.52 134.778C397.409 134.037 396.542 132.983 396.029 131.749C395.517 130.515 395.383 129.157 395.643 127.847C395.903 126.536 396.546 125.332 397.491 124.387C398.436 123.443 399.639 122.799 400.95 122.539C402.26 122.279 403.619 122.414 404.853 122.926C406.087 123.438 407.141 124.305 407.882 125.417C408.623 126.529 409.017 127.835 409.015 129.172C409.012 130.958 408.301 132.671 407.038 133.934C405.774 135.198 404.062 135.909 402.275 135.912V135.912ZM402.275 123.482C401.149 123.48 400.048 123.812 399.111 124.436C398.174 125.06 397.443 125.948 397.011 126.987C396.579 128.026 396.465 129.171 396.683 130.275C396.901 131.379 397.442 132.394 398.238 133.191C399.033 133.987 400.047 134.53 401.15 134.751C402.254 134.971 403.399 134.859 404.439 134.429C405.479 133.998 406.368 133.269 406.994 132.333C407.62 131.398 407.954 130.297 407.954 129.172C407.954 127.664 407.356 126.219 406.291 125.152C405.226 124.086 403.782 123.485 402.275 123.482V123.482Z" fill="#1DA1F2"/>
<path d="M410.565 138.905C410.421 138.904 410.284 138.847 410.183 138.746L405.788 134.383C405.739 134.334 405.699 134.275 405.673 134.21C405.646 134.146 405.632 134.076 405.632 134.006C405.632 133.936 405.646 133.867 405.673 133.802C405.699 133.738 405.739 133.679 405.788 133.629C405.838 133.58 405.896 133.541 405.961 133.514C406.026 133.487 406.095 133.473 406.165 133.473C406.235 133.473 406.304 133.487 406.369 133.514C406.434 133.541 406.492 133.58 406.542 133.629L410.936 137.992C411.008 138.067 411.056 138.162 411.075 138.264C411.094 138.366 411.083 138.472 411.044 138.568C411.005 138.664 410.939 138.747 410.854 138.807C410.769 138.867 410.669 138.901 410.565 138.905V138.905Z" fill="#1DA1F2"/>
<path d="M299.124 209.416C299.124 209.565 281.748 209.692 260.307 209.692C238.866 209.692 221.48 209.565 221.48 209.416C221.48 209.268 238.866 209.14 260.307 209.14C281.748 209.14 299.124 209.257 299.124 209.416Z" fill="black"/>
<path d="M349.298 208.217C349.298 208.376 340.202 208.493 328.993 208.493C317.784 208.493 308.677 208.376 308.677 208.217C308.677 208.058 317.774 207.941 328.993 207.941C340.212 207.941 349.298 208.068 349.298 208.217Z" fill="black"/>
<path d="M298.753 293.344C298.753 293.493 281.377 293.62 259.936 293.62C238.495 293.62 221.119 293.493 221.119 293.344C221.119 293.196 238.495 293.068 259.936 293.068C281.377 293.068 298.753 293.196 298.753 293.344Z" fill="black"/>
<path d="M90.3813 315.189C81.7624 319.647 75.1602 327.332 70.4156 335.792C65.671 344.251 62.6034 353.518 59.5783 362.784L56.9247 410.305C66.9447 393.258 74.9692 373.218 77.1557 353.56L70.4899 352.966C74.9586 352.286 78.7161 349.049 81.1043 345.206C83.4925 341.364 84.7132 336.938 85.9126 332.575L77.782 333.785C84.2168 329.437 88.729 322.777 90.3813 315.189V315.189Z" fill="#455A64"/>
<g opacity="0.3">
<path opacity="0.3" d="M90.3813 315.189C81.7624 319.647 75.1602 327.332 70.4156 335.792C65.671 344.251 62.6034 353.518 59.5783 362.784L56.9247 410.305C66.9447 393.258 74.9692 373.218 77.1557 353.56L70.4899 352.966C74.9586 352.286 78.7161 349.049 81.1043 345.206C83.4925 341.364 84.7132 336.938 85.9126 332.575L77.782 333.785C84.2168 329.437 88.729 322.777 90.3813 315.189V315.189Z" fill="black"/>
</g>
<path d="M55.4387 421.375C55.4387 421.375 33.6898 395.349 33.9445 370.501H42.7226C42.7226 370.501 33.1697 364.217 33.9339 360.703C34.6981 357.19 34.9953 343.89 34.9953 343.89L43.0304 345.896C43.0304 345.896 37.0015 342.882 36.2478 338.116C35.4942 333.35 38.0098 311.251 38.0098 311.251C38.0098 311.251 47.7963 321.547 50.8108 332.087C53.8253 342.627 61.6799 354.929 59.366 387.059C57.0521 419.189 55.4387 421.375 55.4387 421.375Z" fill="#455A64"/>
<path d="M66.467 423.838C66.467 423.838 90.031 408.139 95.2639 388.11L88.1947 386.136C88.1947 386.136 97.2488 383.185 97.408 380.191C97.5672 377.198 100.274 366.446 100.274 366.446L93.3745 366.308C93.3745 366.308 98.8834 365.246 100.529 361.531C102.174 357.816 104.997 339.56 104.997 339.56C104.997 339.56 94.8711 345.684 90.1371 353.507C85.4031 361.33 76.3384 369.482 71.1904 395.827C66.0424 422.171 66.467 423.838 66.467 423.838Z" fill="#455A64"/>
<path d="M43.9009 333.955C43.9383 334.04 43.9668 334.129 43.9858 334.22L44.1769 335.017C44.3467 335.77 44.5802 336.8 44.888 338.105C45.493 340.791 46.2997 344.686 47.2126 349.516C49.0701 359.164 51.2673 372.581 52.9974 387.483C54.7276 402.386 55.6404 415.951 56.0331 425.78C56.2348 430.695 56.341 434.665 56.3622 437.456C56.3622 438.804 56.3622 439.855 56.3622 440.64C56.3622 440.98 56.3622 441.245 56.3622 441.468C56.378 441.56 56.378 441.653 56.3622 441.744C56.3475 441.653 56.3475 441.56 56.3622 441.468C56.3622 441.256 56.3622 440.98 56.3622 440.651C56.3622 439.876 56.2985 438.825 56.2454 437.467C56.1605 434.718 55.9907 430.748 55.7359 425.844C55.2477 416.026 54.2605 402.492 52.5516 387.632C50.8427 372.772 48.6986 359.334 46.9366 349.664C46.0662 344.835 45.3232 340.929 44.8137 338.233C44.559 336.916 44.3573 335.876 44.2087 335.133C44.1556 334.794 44.1026 334.528 44.0707 334.316C43.9882 334.21 43.9302 334.086 43.9009 333.955Z" fill="#263238"/>
<path d="M52.4242 437.318C52.4242 437.318 32.5222 414.794 26.334 401.081L31.0044 399.096C27.6184 399.648 24.1581 398.193 21.5363 395.986C19.0177 393.654 16.851 390.969 15.104 388.014L21.2497 386.953C15.6062 385.347 10.7953 381.635 7.81189 376.583C15.0721 377.771 21.6106 381.752 27.0346 386.73C31.3389 390.857 35.2478 395.377 38.7104 400.231C40.4423 402.564 41.9559 405.051 43.2321 407.661C46.5545 414.582 52.4348 429.028 52.4242 437.318Z" fill="#455A64"/>
<path d="M95.5718 352.743C95.5555 352.824 95.5269 352.903 95.4868 352.976L95.1896 353.634L93.9902 356.15C92.9288 358.273 91.4321 361.457 89.6065 365.395C85.9551 373.218 81.115 384.151 76.3809 396.442C71.6469 408.734 67.8894 420.059 65.2783 428.285C63.9939 432.414 62.9856 435.715 62.3062 438.082L61.4889 440.768L61.266 441.458C61.266 441.606 61.1811 441.691 61.1705 441.681C61.1599 441.67 61.1705 441.596 61.1705 441.437L61.3403 440.736L62.0409 438.04C62.6565 435.705 63.6118 432.34 64.8537 428.2C67.3268 419.911 71.0525 408.553 75.8077 396.24C80.563 383.928 85.4562 373.016 89.2031 365.225C91.0713 361.33 92.6316 358.198 93.7461 356.054L95.041 353.581L95.3913 352.955C95.443 352.877 95.5036 352.806 95.5718 352.743V352.743Z" fill="#263238"/>
<path d="M54.1119 446.999C53.9575 446.471 53.8509 445.932 53.7935 445.385C53.6343 444.324 53.3689 442.848 52.9974 441.001C52.0214 436.201 50.6692 431.484 48.9533 426.895C47.2104 422.312 45.1056 417.876 42.659 413.627C41.7143 412.003 40.9288 410.697 40.3556 409.816C40.0429 409.367 39.7695 408.891 39.5383 408.394C39.9091 408.795 40.2431 409.228 40.5361 409.689C41.1623 410.549 42.0115 411.812 42.9986 413.436C45.5576 417.648 47.725 422.085 49.4734 426.693C51.2084 431.308 52.5159 436.073 53.3795 440.927C53.6979 442.795 53.9102 444.303 54.0058 445.364C54.0866 445.905 54.1221 446.452 54.1119 446.999V446.999Z" fill="#263238"/>
<path d="M80.3719 441.681H36.8104V450.565H80.3719V441.681Z" fill="#1DA1F2"/>
<path d="M40.9607 450.576L45.6735 480.455H71.9972L76.3916 450.576H40.9607Z" fill="#1DA1F2"/>
<path d="M77.6971 450.576C77.6971 450.724 69.4603 450.851 59.2917 450.851C49.1231 450.851 40.897 450.724 40.897 450.576C40.897 450.427 49.1338 450.3 59.2917 450.3C69.4497 450.3 77.6971 450.416 77.6971 450.576Z" fill="#263238"/>
<path d="M267.408 458.409V480.445L311.861 480.232C311.543 475.764 287.14 466.847 287.14 466.847L287.629 458.356L267.408 458.409Z" fill="#455A64"/>
<g opacity="0.6">
<path opacity="0.6" d="M274.615 464.852C274.183 465.011 273.822 465.32 273.599 465.724C273.377 466.128 273.308 466.598 273.405 467.049C273.507 467.492 273.779 467.878 274.162 468.122C274.545 468.366 275.009 468.45 275.454 468.355C275.913 468.182 276.294 467.85 276.528 467.419C276.762 466.988 276.833 466.488 276.728 466.009C276.649 465.789 276.528 465.587 276.372 465.415C276.215 465.242 276.025 465.102 275.814 465.004C275.602 464.905 275.374 464.849 275.141 464.839C274.908 464.83 274.675 464.866 274.456 464.947" fill="white"/>
</g>
<path d="M267.408 480.445V476.931L309.866 477.43C309.866 477.43 312.074 478.757 311.872 480.232L267.408 480.445Z" fill="#263238"/>
<path d="M287.162 467.272C287.162 467.505 286.1 467.622 285.039 468.333C283.977 469.045 283.436 470.053 283.234 469.968C283.033 469.883 283.34 468.546 284.625 467.665C285.909 466.784 287.204 467.06 287.162 467.272Z" fill="#263238"/>
<path d="M292.989 469.31C292.989 469.533 292.108 469.936 291.386 470.913C290.664 471.889 290.473 472.919 290.261 472.908C290.049 472.898 289.89 471.613 290.802 470.414C291.715 469.214 292.978 469.098 292.989 469.31Z" fill="#263238"/>
<path d="M295.611 474.925C295.409 474.978 295.091 473.863 295.611 472.579C296.131 471.295 297.15 470.806 297.245 470.998C297.341 471.189 296.725 471.868 296.301 472.908C295.876 473.948 295.823 474.904 295.611 474.925Z" fill="#263238"/>
<path d="M286.727 460.999C286.642 461.211 285.665 460.914 284.423 460.999C283.181 461.084 282.3 461.53 282.152 461.328C282.003 461.126 282.937 460.267 284.37 460.203C285.803 460.139 286.833 460.819 286.727 460.999Z" fill="#263238"/>
<path d="M286.981 468.259C287.101 467.82 287.134 467.362 287.077 466.911C286.98 465.674 286.575 464.48 285.899 463.44C285.436 462.726 284.846 462.103 284.158 461.604C283.955 461.43 283.709 461.314 283.446 461.267C283.182 461.22 282.912 461.245 282.661 461.338C282.401 461.484 282.183 461.694 282.028 461.949C281.874 462.204 281.788 462.495 281.78 462.793C281.849 463.942 282.256 465.046 282.951 465.964C283.647 466.882 284.598 467.573 285.686 467.951C286.751 468.289 287.893 468.3 288.964 467.982C290.035 467.664 290.986 467.032 291.694 466.168C292.042 465.769 292.312 465.308 292.49 464.809C292.58 464.523 292.58 464.215 292.49 463.928C292.441 463.785 292.361 463.654 292.257 463.544C292.152 463.434 292.026 463.348 291.885 463.291C291.425 463.155 290.929 463.205 290.505 463.429C290.137 463.597 289.782 463.792 289.444 464.013C288.445 464.682 287.584 465.536 286.907 466.529C286.63 466.88 286.421 467.279 286.291 467.707C287.212 466.415 288.359 465.3 289.677 464.417C290.272 464.077 291.057 463.589 291.683 463.811C291.959 463.918 292.065 464.247 291.938 464.629C291.776 465.044 291.539 465.426 291.238 465.754C290.595 466.517 289.741 467.073 288.784 467.35C287.826 467.628 286.807 467.616 285.856 467.314C284.905 466.978 284.07 466.379 283.448 465.586C282.826 464.792 282.442 463.838 282.343 462.835C282.335 462.644 282.38 462.454 282.471 462.286C282.563 462.117 282.698 461.977 282.863 461.88C283.032 461.826 283.212 461.815 283.386 461.848C283.56 461.881 283.723 461.958 283.861 462.071C284.503 462.516 285.06 463.074 285.506 463.716C286.174 464.666 286.621 465.754 286.811 466.9C286.949 467.781 286.928 468.259 286.981 468.259Z" fill="#263238"/>
<path d="M251.179 461.593L251.932 467.272L251.434 480.062L234.769 480.465L234.175 467.272L236.064 459.428L251.179 461.593Z" fill="#455A64"/>
<path d="M243.197 479.096C243.091 479.096 243.335 475.19 243.728 470.361C244.12 465.531 244.534 461.604 244.63 461.593C244.725 461.583 244.492 465.51 244.099 470.34C243.706 475.169 243.292 479.096 243.197 479.096Z" fill="#263238"/>
<path d="M251.497 477.929L234.663 478.13V480.466L251.508 480.455L251.497 477.929Z" fill="#263238"/>
<path d="M234.705 470.573C234.705 470.573 234.822 470.308 235.13 469.904C235.571 469.326 236.069 468.792 236.616 468.312C237.42 467.585 238.324 466.977 239.301 466.508C241.011 465.672 242.943 465.407 244.814 465.753C246.685 466.099 248.396 467.037 249.693 468.429C250.183 468.974 250.594 469.585 250.914 470.244C251.049 470.476 251.139 470.732 251.179 470.998C250.661 470.178 250.079 469.401 249.438 468.673C247.771 467.031 245.526 466.108 243.186 466.104C240.841 466.174 238.591 467.052 236.818 468.588C235.448 469.724 234.769 470.637 234.705 470.573Z" fill="#263238"/>
<path d="M243.122 104.578L242.995 162.172L267.716 163.35L268.438 149.339C268.438 149.339 277.216 151.08 279.477 142.97C280.931 137.758 280.538 97.498 280.538 97.498L243.122 104.578Z" fill="#B78876"/>
<path d="M283.765 101.542C279.87 102.657 279.02 108.972 279.02 108.972L272.917 122.463C269.807 120.032 265.625 120.17 264.84 125.647C264.266 129.596 269.181 130.392 269.181 130.392C266.315 135.264 264.383 139.202 260.212 143.83C255.732 148.872 253.185 149.371 248.302 149.434H242.91C242.91 149.434 240.267 140.868 235.385 119.459C229.971 95.7042 258.057 98.7611 263.269 92.7003C271.75 82.8395 296.067 98.0287 283.765 101.542Z" fill="#263238"/>
<path d="M290.622 96.3623C290.407 95.0954 289.747 93.947 288.76 93.1238C287.774 92.3006 286.525 91.8568 285.241 91.8724C285.642 91.1954 285.792 90.3985 285.664 89.6218C285.536 88.8452 285.138 88.1386 284.54 87.6266C283.919 87.1391 283.2 86.7918 282.433 86.6086C281.665 86.4253 280.867 86.4105 280.093 86.5652C278.544 86.8785 277.05 87.4148 275.656 88.1573C275.135 86.6179 274.129 85.2885 272.79 84.368C271.348 83.5233 269.693 83.1141 268.024 83.1898C260.435 83.1898 256.444 88.3803 252.368 93.6768C251.773 94.6636 250.922 95.4707 249.905 96.012C249.165 96.2296 248.393 96.3158 247.623 96.2668C244.723 96.3586 241.899 97.2136 239.436 98.7455C236.972 100.277 234.956 102.432 233.591 104.992C230.937 110.119 228.952 121.975 235.83 129.405L239.97 138.65L279.594 107.253C279.88 107.401 282.364 108.611 284.275 107.614C289.019 105.109 287.024 100.948 287.024 100.948C287.406 100.682 291.025 98.9097 290.622 96.3623Z" fill="#263238"/>
<path d="M253.949 127.261C254.28 128.706 254.233 130.212 253.811 131.634C253.588 133.101 252.984 134.485 252.06 135.646C251.89 135.561 252.686 133.799 253.196 131.496C253.705 129.193 253.769 127.261 253.949 127.261Z" fill="#455A64"/>
<path d="M256.942 124.427C257.15 125.843 257.07 127.287 256.709 128.673C256.551 130.085 256.107 131.45 255.403 132.685C255.508 131.29 255.739 129.908 256.093 128.556C256.245 127.156 256.53 125.773 256.942 124.427Z" fill="#455A64"/>
<path d="M265.498 114.916C265.561 115.001 264.861 115.511 263.969 116.551C262.833 117.929 261.932 119.485 261.305 121.158C260.696 122.849 260.203 124.579 259.83 126.337C259.725 127.07 259.518 127.785 259.214 128.46C259.169 127.702 259.23 126.941 259.394 126.199C259.646 124.388 260.091 122.609 260.721 120.892C261.367 119.151 262.364 117.561 263.651 116.222C264.154 115.646 264.787 115.199 265.498 114.916V114.916Z" fill="#455A64"/>
<path d="M268.958 108.452C269.032 108.452 269.287 109.004 269.446 110.002C269.625 111.317 269.55 112.654 269.223 113.94C268.913 115.228 268.346 116.441 267.557 117.506C266.952 118.324 266.495 118.716 266.4 118.663C266.304 118.61 267.918 116.678 268.618 113.791C269.319 110.904 268.767 108.473 268.958 108.452Z" fill="#455A64"/>
<path d="M239.461 122.835C239.376 122.994 238.622 122.728 237.773 122.251C236.924 121.773 236.297 121.274 236.382 121.115C236.467 120.956 237.221 121.232 238.07 121.709C238.919 122.187 239.545 122.686 239.461 122.835Z" fill="#455A64"/>
<path d="M251.402 116.689C251.498 117.583 251.248 118.48 250.701 119.194C249.937 120.457 248.907 121.115 248.801 120.988C248.695 120.86 249.47 120.033 250.16 118.865C250.85 117.697 251.221 116.647 251.402 116.689Z" fill="#455A64"/>
<path d="M255.074 114.715C255.062 115.802 254.688 116.855 254.013 117.708C253.026 119.215 251.784 120.022 251.688 119.831C251.593 119.64 252.569 118.769 253.493 117.315C253.969 116.418 254.497 115.55 255.074 114.715Z" fill="#455A64"/>
<path d="M273.331 90.5775C273.331 90.5775 272.864 90.2272 271.972 89.7177C270.696 89.041 269.277 88.6772 267.833 88.6563C265.691 88.5995 263.579 89.1635 261.751 90.2803C259.555 91.7227 257.773 93.713 256.582 96.0545C255.669 97.7681 254.957 99.5809 254.459 101.457L254.353 101.818L254.024 101.638C252.321 100.747 250.435 100.264 248.515 100.226C246.99 100.191 245.471 100.421 244.025 100.905C242.738 101.383 241.506 101.998 240.352 102.742C240.59 102.458 240.869 102.211 241.18 102.009C242.014 101.401 242.929 100.912 243.897 100.555C245.372 99.9936 246.937 99.7094 248.515 99.7165C250.53 99.7115 252.517 100.188 254.31 101.107L253.875 101.298C254.365 99.3751 255.078 97.5157 255.998 95.7573C257.24 93.3199 259.113 91.26 261.422 89.792C263.342 88.6479 265.558 88.0976 267.79 88.2105C269.294 88.275 270.756 88.7245 272.036 89.5161C272.378 89.7321 272.694 89.9849 272.981 90.2697C273.246 90.4607 273.342 90.5669 273.331 90.5775Z" fill="#455A64"/>
<path d="M286.334 93.7193C286.281 93.7193 287.013 93.5283 287.745 94.3562C287.957 94.6033 288.117 94.8904 288.215 95.2003C288.313 95.5103 288.349 95.8368 288.319 96.1607C288.254 96.5924 288.09 97.0032 287.84 97.3606C287.589 97.718 287.259 98.0121 286.875 98.2198C285.964 98.7369 284.889 98.8851 283.871 98.6338C282.753 98.3393 281.703 97.8271 280.782 97.1266C279.816 96.3557 278.802 95.6467 277.747 95.0037C276.605 94.3861 275.372 93.9526 274.095 93.7193C271.615 93.2726 269.062 93.4477 266.665 94.2288C264.697 94.8774 262.84 95.8223 261.156 97.031C258.269 99.1008 256.847 100.842 256.751 100.746C257.037 100.306 257.368 99.8967 257.739 99.5254C258.71 98.4783 259.776 97.5225 260.923 96.6701C262.615 95.3792 264.504 94.3686 266.517 93.6769C269.009 92.8319 271.676 92.6346 274.265 93.1037C275.606 93.3505 276.9 93.8091 278.097 94.4624C279.164 95.1028 280.189 95.8119 281.165 96.5852C282.018 97.2568 282.996 97.7544 284.041 98.05C284.937 98.2962 285.893 98.1938 286.716 97.7634C287.049 97.5935 287.339 97.3507 287.565 97.0529C287.791 96.7552 287.947 96.4103 288.021 96.0439C288.098 95.4761 287.949 94.901 287.607 94.4411C287.282 94.0571 286.83 93.8013 286.334 93.7193Z" fill="#455A64"/>
<path d="M401.5 137.928C400.566 137.1 387.977 142.376 387.977 142.376C387.977 142.376 378.584 149.806 374.72 154.105L372.332 156.089L336.604 183.867L292.66 165.589L283.107 190.098C283.107 190.098 332.443 209.745 339.958 206.381C348.12 202.729 378.53 170.897 378.605 170.79L382.999 166.545C382.999 166.545 385.324 166.545 387.086 166.396C388.848 166.247 394.006 162.861 394.006 162.861C394.496 161.919 394.833 160.905 395.004 159.858C395.112 159.44 395.076 158.999 394.903 158.604C394.73 158.21 394.429 157.885 394.049 157.682C394.228 156.866 394.257 156.024 394.134 155.198C393.932 153.797 392.011 152.173 392.011 152.173C392.609 151.563 393.019 150.792 393.189 149.954C393.614 148.33 391.522 146.77 391.522 146.77C391.522 146.77 398.836 141.803 400.608 140.922C402.381 140.041 402.434 138.756 401.5 137.928Z" fill="#B78876"/>
<path d="M299.124 388.991C299.273 387.377 299.347 386.136 299.347 385.361L304.315 306.145C304.315 306.145 300.143 283.006 298.169 276.871L280.432 270.003L256.794 279.206C256.645 277.306 256.55 276.128 256.55 276.128L221.766 288.165C221.766 288.165 220.864 311.909 221.766 319.137C222.064 321.462 222.966 327.459 224.07 334.528C224.07 334.528 225.195 349.887 225.428 350.747C226.267 353.878 226.49 361.553 226.49 369.237C226.49 379.003 227.02 390.625 227.636 396.145C228.252 401.664 228.538 462.421 228.538 462.421H254.225L257.526 365.66C258.078 355.29 258.906 339.432 259.437 327.958L265.466 363.686C265.466 364.992 269.138 385.424 269.138 385.424C268.29 391.855 267.766 398.323 267.567 404.806C267.143 422.851 265.031 462.421 265.031 462.421H290.166C290.166 462.421 297.723 405.231 299.188 388.991H299.124Z" fill="#263238"/>
<path d="M303.497 301.401C302.672 301.089 301.891 300.671 301.173 300.159C299.39 299.015 297.726 297.696 296.205 296.221C294.685 294.749 293.313 293.131 292.108 291.391C291.565 290.697 291.126 289.929 290.802 289.109C291.385 289.756 291.924 290.44 292.416 291.158C293.696 292.813 295.09 294.377 296.587 295.839C298.086 297.285 299.685 298.622 301.374 299.84C302.118 300.309 302.828 300.83 303.497 301.401V301.401Z" fill="#455A64"/>
<path d="M258.62 315.794C258.418 315.558 258.253 315.293 258.131 315.008C257.737 314.264 257.382 313.498 257.07 312.716C255.995 310.139 255.208 307.451 254.724 304.702C254.252 301.951 254.081 299.157 254.215 296.369C254.278 295.308 254.363 294.448 254.459 293.854C254.477 293.541 254.545 293.233 254.66 292.941C254.745 292.941 254.66 294.268 254.607 296.38C254.575 299.136 254.796 301.89 255.265 304.606C255.734 307.321 256.445 309.989 257.388 312.578C258.142 314.562 258.694 315.751 258.62 315.794Z" fill="#455A64"/>
<path d="M262.356 345.62C262.199 345.173 262.089 344.711 262.027 344.24C261.843 343.236 261.609 341.972 261.326 340.451C260.774 337.129 260.031 332.756 259.203 327.915C257.781 319.031 256.815 312.981 256.369 310.168C256.946 311.831 257.352 313.549 257.579 315.295C258.195 318.479 258.959 322.927 259.766 327.82C260.573 332.713 261.241 337.171 261.708 340.387C261.91 341.916 262.09 343.19 262.228 344.209C262.323 344.673 262.366 345.146 262.356 345.62V345.62Z" fill="#455A64"/>
<path d="M201.737 213.492C201.737 213.492 198.351 237.364 197.714 245.728C197.332 250.77 202.448 257.404 206.354 257.945C210.26 258.487 223.422 259.219 223.422 259.219L224.484 244.242L224.144 241.259L220.057 240.495L221.289 216.74L201.737 213.492Z" fill="#B78876"/>
<path d="M220.779 217.547C220.884 217.971 220.938 218.405 220.938 218.842C221.002 219.68 221.045 220.89 221.076 222.398C221.151 225.391 221.076 229.541 220.822 234.074C220.567 238.606 220.195 242.777 219.909 245.749C219.75 247.235 219.622 248.445 219.516 249.273C219.492 249.709 219.417 250.14 219.293 250.558C219.245 250.124 219.245 249.686 219.293 249.252C219.346 248.297 219.421 247.129 219.506 245.707C219.707 242.597 219.962 238.532 220.249 234.031C220.535 229.531 220.641 225.348 220.673 222.355C220.673 220.954 220.673 219.765 220.673 218.81C220.664 218.386 220.7 217.963 220.779 217.547V217.547Z" fill="#AA6550"/>
<g opacity="0.3">
<path opacity="0.3" d="M222.074 288.6C228.761 291.083 236.085 291.285 243.186 290.669C250.287 290.054 257.314 288.621 264.415 287.952C275.177 286.946 286.03 287.663 296.566 290.075C297.301 290.298 298.074 290.37 298.837 290.287C299.217 290.239 299.573 290.077 299.858 289.824C300.144 289.57 300.347 289.236 300.44 288.865C300.631 287.676 299.326 286.848 298.222 286.392C286.073 281.368 273.012 278.924 259.869 279.217C246.725 279.509 233.786 282.531 221.872 288.09" fill="black"/>
</g>
<path d="M324.461 176.437L286.758 157.671C280.813 156.973 274.825 156.711 268.841 156.886H243.887C243.887 156.886 213.657 165.802 208.658 174.028L195.697 212.877L221.321 216.74L224.505 244.656C224.505 244.656 221.321 276.977 221.321 281.668C221.251 283.841 221.383 286.016 221.713 288.164C221.713 288.164 272.981 280.374 285.601 284.481C298.222 288.589 301.629 288.164 301.629 288.164C301.629 288.164 300.568 274.748 299.644 266.936L296.736 227.981L294.613 198.26L318.336 205.521L324.461 176.437Z" fill="#1DA1F2"/>
<path d="M221.087 217.048C220.992 217.048 220.737 215.445 220.174 212.855C219.425 209.487 218.432 206.177 217.202 202.952C215.947 199.703 214.479 196.54 212.808 193.484L211.258 190.703C211.039 190.374 210.864 190.017 210.738 189.642C211.015 189.927 211.257 190.244 211.46 190.586C211.895 191.213 212.521 192.136 213.169 193.304C214.961 196.321 216.495 199.485 217.754 202.761C218.996 206.009 219.941 209.363 220.578 212.781C220.811 214.087 220.96 215.148 221.034 215.891C221.099 216.273 221.117 216.662 221.087 217.048Z" fill="#263238"/>
<path d="M269.436 228.076C269.416 228.256 269.369 228.431 269.298 228.597L268.82 230.029C268.608 230.656 268.342 231.409 267.992 232.28C267.642 233.15 267.27 234.148 266.782 235.209C265.859 237.332 264.659 239.901 263.152 242.639C261.645 245.378 259.861 248.286 257.845 251.237C255.828 254.188 253.599 256.852 251.593 259.208C249.587 261.565 247.581 263.55 245.861 265.163C245.023 265.991 244.205 266.681 243.515 267.286C242.825 267.891 242.199 268.432 241.69 268.846L240.501 269.78C240.367 269.898 240.221 270.001 240.066 270.088C240.066 270.088 240.182 269.94 240.437 269.695L241.552 268.634C242.04 268.209 242.613 267.668 243.314 267.021C244.014 266.373 244.778 265.673 245.596 264.834C247.273 263.199 249.183 261.162 251.211 258.826C253.238 256.491 255.34 253.795 257.399 250.876C259.458 247.957 261.22 245.038 262.706 242.385C264.192 239.731 265.455 237.184 266.421 235.05C266.931 233.989 267.323 233.001 267.695 232.152C268.066 231.303 268.374 230.56 268.618 229.945C268.862 229.329 269.032 228.883 269.192 228.543C269.253 228.378 269.335 228.221 269.436 228.076Z" fill="#263238"/>
<path d="M286.854 160.24C285.862 161.658 285.185 163.272 284.869 164.974C284.55 166.818 284.55 168.702 284.869 170.546C285.281 172.816 285.812 175.062 286.461 177.276C287.767 182.031 289.136 186.266 290.187 189.323C290.686 190.767 291.1 191.977 291.439 192.943C291.615 193.379 291.75 193.83 291.843 194.291C291.595 193.888 291.389 193.461 291.227 193.017C290.877 192.189 290.378 190.979 289.805 189.461C288.658 186.436 287.215 182.19 285.909 177.424C285.275 175.202 284.768 172.944 284.391 170.663C284.08 168.766 284.108 166.829 284.476 164.942C284.737 163.669 285.234 162.455 285.941 161.365C286.174 160.937 286.484 160.556 286.854 160.24V160.24Z" fill="#263238"/>
<path d="M215.716 201.137C215.157 201.741 214.467 202.21 213.699 202.506C211.896 203.334 209.889 203.616 207.927 203.316C205.965 203.016 204.134 202.148 202.66 200.819C202.018 200.31 201.502 199.66 201.153 198.919C201.227 198.855 201.779 199.609 202.915 200.522C204.393 201.716 206.161 202.496 208.04 202.781C209.918 203.067 211.838 202.847 213.604 202.146C214.909 201.615 215.663 201.063 215.716 201.137Z" fill="white"/>
<path d="M287.968 183.613C287.894 183.895 287.791 184.169 287.661 184.43C287.427 184.961 287.066 185.725 286.546 186.68C285.052 189.389 283.163 191.861 280.942 194.015C277.621 197.238 273.479 199.488 268.969 200.521C266.309 201.131 263.561 201.249 260.859 200.872C257.968 200.412 255.186 199.422 252.654 197.953C247.443 195.044 243.038 191.361 238.219 189.599C233.956 188.023 229.318 187.768 224.908 188.867C221.932 189.581 219.124 190.868 216.64 192.656C214.899 193.94 214.082 194.843 214.039 194.779C214.782 193.928 215.611 193.156 216.512 192.476C219.594 190.14 223.208 188.61 227.03 188.022C230.851 187.435 234.759 187.809 238.399 189.111C243.335 190.894 247.772 194.588 252.92 197.454C255.391 198.909 258.106 199.902 260.933 200.383C263.574 200.755 266.26 200.647 268.862 200.065C273.293 199.072 277.372 196.897 280.666 193.771C282.895 191.671 284.811 189.261 286.355 186.616C286.896 185.682 287.3 184.929 287.554 184.419C287.671 184.14 287.809 183.87 287.968 183.613Z" fill="white"/>
<path d="M311.575 169.994C311.785 170.385 311.949 170.798 312.063 171.226C312.413 172.374 312.62 173.561 312.679 174.76C312.885 178.781 311.612 182.737 309.102 185.884C307.643 187.499 306.06 188.996 304.368 190.363C303.039 191.478 301.955 192.855 301.183 194.408C300.662 195.453 300.417 196.615 300.472 197.783C300.536 198.611 300.716 199.057 300.663 199.067C300.61 199.078 300.589 198.972 300.504 198.759C300.384 198.452 300.302 198.131 300.26 197.804C300.114 196.59 300.309 195.359 300.822 194.248C301.569 192.622 302.654 191.174 304.007 190.003C305.654 188.629 307.204 187.143 308.645 185.555C311.069 182.499 312.349 178.692 312.265 174.792C312.183 173.175 311.952 171.569 311.575 169.994Z" fill="white"/>
<path d="M250.255 259.484C249.921 259.663 249.564 259.795 249.194 259.877C248.171 260.17 247.128 260.39 246.073 260.535C244.484 260.799 242.856 260.705 241.307 260.259C240.389 259.967 239.54 259.491 238.813 258.858C238.082 258.164 237.401 257.419 236.775 256.629C236.161 255.877 235.447 255.213 234.652 254.655C233.896 254.162 233.079 253.769 232.222 253.487C230.752 253.018 229.199 252.869 227.668 253.052C226.63 253.166 225.618 253.453 224.675 253.901C224.334 254.092 223.979 254.255 223.613 254.39C223.891 254.111 224.214 253.881 224.569 253.71C225.508 253.167 226.542 252.807 227.615 252.649C229.204 252.394 230.831 252.507 232.37 252.978C233.283 253.258 234.151 253.665 234.949 254.188C235.798 254.759 236.556 255.453 237.2 256.247C237.809 257.015 238.469 257.742 239.174 258.423C239.847 259.015 240.63 259.469 241.477 259.76C242.957 260.198 244.511 260.324 246.041 260.132C248.621 259.824 250.234 259.389 250.255 259.484Z" fill="white"/>
<path d="M299.071 257.224C298.97 257.333 298.856 257.429 298.731 257.51C298.392 257.765 298.037 257.999 297.67 258.211C296.351 259.016 294.92 259.62 293.424 260.005C291.176 260.583 288.836 260.72 286.535 260.408C283.698 260.024 281.003 258.928 278.702 257.224C276.516 255.458 274.425 253.576 272.44 251.587C270.815 250.008 268.934 248.716 266.878 247.766C265.497 247.126 263.994 246.793 262.473 246.79C261.411 246.79 260.796 246.97 260.785 246.906C260.92 246.843 261.063 246.797 261.209 246.768C261.619 246.658 262.039 246.59 262.462 246.567C264.031 246.496 265.595 246.783 267.037 247.405C269.16 248.327 271.104 249.617 272.779 251.216C274.722 252.935 276.653 255.026 279.031 256.778C281.259 258.416 283.86 259.474 286.599 259.856C288.84 260.18 291.121 260.09 293.329 259.591C294.806 259.239 296.233 258.7 297.574 257.988C298.057 257.703 298.557 257.447 299.071 257.224Z" fill="white"/>
<path d="M389.293 105.979C381.584 102.291 374.855 96.8345 369.654 90.0536C364.452 83.2727 360.927 75.3591 359.363 66.9574C357.799 58.5557 358.242 49.9035 360.656 41.7054C363.07 33.5074 367.385 25.9953 373.252 19.7811C379.119 13.5669 386.37 8.82628 394.416 5.94531C402.461 3.06433 411.074 2.1245 419.552 3.20236C428.029 4.28022 436.132 7.34528 443.201 12.1479C450.27 16.9505 456.105 23.3549 460.229 30.8395V30.8395C465.785 40.9047 467.999 52.4745 466.552 63.8796C465.106 75.2847 460.073 85.9355 452.181 94.2952C444.289 102.655 433.946 108.291 422.642 110.391C411.339 112.491 399.661 110.946 389.293 105.979V105.979ZM434.532 11.362C423.644 6.16445 411.256 5.02788 399.604 8.15724C387.951 11.2866 377.8 18.476 370.981 28.4292C364.161 38.3824 361.122 50.4445 362.41 62.4409C363.699 74.4373 369.231 85.5785 378.01 93.856C386.788 102.133 398.235 107.002 410.286 107.585C422.337 108.168 434.2 104.426 443.736 97.0342C453.272 89.6423 459.853 79.0868 462.294 67.2708C464.734 55.4547 462.873 43.1556 457.045 32.5908C451.942 23.3373 444.069 15.9137 434.532 11.362V11.362Z" fill="#263238"/>
<path d="M480.875 165.356C479.351 166.293 477.518 166.587 475.777 166.176C474.036 165.764 472.529 164.679 471.587 163.159L436.103 105.639C435.941 105.379 435.89 105.065 435.959 104.766C436.029 104.468 436.214 104.209 436.474 104.047L444.043 99.3767C444.3 99.2191 444.609 99.1676 444.904 99.233C445.199 99.2983 445.457 99.4753 445.624 99.727L482.944 155.803C483.457 156.559 483.812 157.412 483.986 158.309C484.159 159.206 484.149 160.129 483.956 161.023C483.762 161.916 483.389 162.761 482.86 163.505C482.33 164.25 481.655 164.88 480.875 165.356V165.356Z" fill="#263238"/>
<path d="M390.599 103.24C382.885 99.5547 376.151 94.0986 370.945 87.3168C365.74 80.535 362.21 72.6193 360.643 64.2147C359.077 55.8101 359.518 47.1543 361.932 38.9526C364.345 30.7509 368.661 23.2353 374.53 17.0182C380.398 10.8011 387.653 6.05838 395.702 3.17645C403.751 0.294524 412.367 -0.645077 420.847 0.434207C429.328 1.51349 437.434 4.58113 444.505 9.38717C451.576 14.1932 457.411 20.6017 461.535 28.0905V28.0905C467.087 38.1563 469.298 49.7251 467.85 61.1289C466.403 72.5326 461.371 83.1819 453.48 91.5412C445.589 99.9006 435.248 105.538 423.946 107.641C412.645 109.743 400.968 108.202 390.599 103.24V103.24ZM435.838 8.62365C424.949 3.42607 412.562 2.2895 400.909 5.41885C389.257 8.54821 379.106 15.7376 372.286 25.6908C365.467 35.644 362.427 47.7061 363.716 59.7025C365.005 71.6989 370.537 82.8401 379.315 91.1176C388.093 99.395 399.54 104.264 411.591 104.847C423.643 105.43 435.506 101.688 445.042 94.2958C454.578 86.9039 461.159 76.3484 463.599 64.5324C466.04 52.7163 464.178 40.4172 458.351 29.8525C453.247 20.5989 445.375 13.1754 435.838 8.62365V8.62365Z" fill="#455A64"/>
<path d="M436.8 101.844L446.313 95.9756L484.047 157.143C484.786 158.341 485.019 159.784 484.694 161.153C484.37 162.523 483.514 163.708 482.316 164.447L481.765 164.787C480.567 165.526 479.125 165.758 477.755 165.434C476.386 165.109 475.201 164.254 474.462 163.056L436.728 101.888L436.8 101.844Z" fill="#455A64"/>
<path d="M373.489 41.4008C373.539 40.8342 373.638 40.2731 373.786 39.7237C373.911 39.0699 374.078 38.4247 374.285 37.7919C374.525 36.9395 374.808 36.0999 375.134 35.2763L375.675 33.8433C375.877 33.3445 376.142 32.8562 376.386 32.3255C376.864 31.264 377.511 30.2026 378.159 29.0881C379.665 26.6976 381.407 24.4644 383.36 22.4222C385.349 20.4202 387.532 18.6211 389.877 17.0514C390.907 16.3793 391.97 15.7593 393.062 15.1938C393.571 14.9285 394.059 14.6525 394.548 14.4296L395.97 13.8246C396.781 13.476 397.61 13.1713 398.454 12.9117C399.081 12.6857 399.723 12.5014 400.375 12.3598C400.922 12.2047 401.478 12.0876 402.041 12.0095C401.518 12.2305 400.979 12.4115 400.428 12.5509C399.79 12.7267 399.163 12.9393 398.549 13.1877C397.722 13.47 396.911 13.796 396.118 14.1642L394.728 14.7905C394.24 15.0134 393.762 15.3 393.263 15.5653C392.202 16.0854 391.225 16.7648 390.132 17.4441C387.843 19.0041 385.71 20.7814 383.763 22.7513C381.836 24.7651 380.105 26.958 378.594 29.3004C377.947 30.3618 377.289 31.4233 376.8 32.4847C376.556 32.9942 376.28 33.4718 376.068 33.9601L375.473 35.3718C375.07 36.2528 374.826 37.102 374.561 37.8344C374.333 38.456 374.141 39.0904 373.987 39.7343C373.866 40.3023 373.699 40.8595 373.489 41.4008V41.4008Z" fill="#E0E0E0"/>
</svg>
